<svg data-name="Layer 1" width="2016.925" height="424" xmlns="http://www.w3.org/2000/svg"><path d="M474.56 212c0 117.08-94.92 212-212 212s-212-94.92-212-212m424 0c0-117.08-94.92-212-212-212s-212 94.92-212 212" style="fill:#b576df"/><path d="M458.37 130.64a210.93 210.93 0 0 1 15.8 81.36c0 14-21.43 31.63-54.11 44.86-41.76 16.9-97.82 26.2-157.85 26.2s-116.09-9.3-157.85-26.2C71.68 243.63 50.78 226 50.78 212a211.12 211.12 0 0 1 16.52-82.7C23.74 150.87 0 179.82 0 212c0 36.26 30.11 68.42 84.79 90.54 47.6 19.27 110.36 29.88 176.71 29.88 66.35 0 129.11-10.61 176.71-29.88C492.89 280.42 523 248.26 523 212c0-31.52-22.76-59.93-64.63-81.36z" style="fill:#9449bf"/><text xml:space="preserve" style="font-style:normal;font-variant:normal;font-weight:400;font-stretch:normal;font-size:366.667px;line-height:1.25;font-family:Cantarell;-inkscape-font-specification:Cantarell;fill:#000;fill-opacity:1;stroke:none" x="610.39" y="313.044"><tspan x="610.39" y="313.044" style="font-style:normal;font-variant:normal;font-weight:800;font-stretch:normal;font-size:366.667px;font-family:Cantarell;-inkscape-font-specification:'Cantarell Ultra-Bold'">starship</tspan></text></svg>